<?xml version="1.0" encoding="UTF-8" standalone="no"?>
<!-- Generator: Adobe Illustrator 16.0.0, SVG Export Plug-In . SVG Version: 6.00 Build 0)  -->

<svg
   xmlns:dc="http://purl.org/dc/elements/1.1/"
   xmlns:cc="http://creativecommons.org/ns#"
   xmlns:rdf="http://www.w3.org/1999/02/22-rdf-syntax-ns#"
   xmlns:svg="http://www.w3.org/2000/svg"
   xmlns="http://www.w3.org/2000/svg"
   xmlns:sodipodi="http://sodipodi.sourceforge.net/DTD/sodipodi-0.dtd"
   xmlns:inkscape="http://www.inkscape.org/namespaces/inkscape"
   version="1.1"
   id="Capa_1"
   x="0px"
   y="0px"
   width="430"
   height="512"
   viewBox="0 0 361.2336 430.119"
   xml:space="preserve"
   sodipodi:docname="ember-logo-2.svg"
   inkscape:version="0.92.1 r15371"><metadata
     id="metadata40"><rdf:RDF><cc:Work
         rdf:about=""><dc:format>image/svg+xml</dc:format><dc:type
           rdf:resource="http://purl.org/dc/dcmitype/StillImage" /><dc:title></dc:title></cc:Work></rdf:RDF></metadata><defs
     id="defs38" /><sodipodi:namedview
     pagecolor="#ffffff"
     bordercolor="#666666"
     borderopacity="1"
     objecttolerance="10"
     gridtolerance="10"
     guidetolerance="10"
     inkscape:pageopacity="0"
     inkscape:pageshadow="2"
     inkscape:window-width="1600"
     inkscape:window-height="837"
     id="namedview36"
     showgrid="false"
     inkscape:zoom="0.4609375"
     inkscape:cx="256"
     inkscape:cy="256"
     inkscape:window-x="-8"
     inkscape:window-y="-8"
     inkscape:window-maximized="1"
     inkscape:current-layer="Capa_1" /><g
     id="g3"
     transform="translate(-35.283278)"><path
       id="Ember"
       d="m 390.342,148.046 c -6.264,23.293 -30.948,34.936 -30.948,34.936 C 303.147,40.053 229.593,0 229.593,0 226.466,45.849 171.012,82 171.012,82 L 132.534,61.745 c 6.214,32.537 -13.672,62.926 -13.672,62.926 -79.692,52.05 -49.025,159.11 -49.025,159.11 L 35.844,268.338 C 61.14,451.521 215.758,429.269 215.758,429.269 436.056,427.714 390.342,148.046 390.342,148.046 Z M 209.852,394.751 C 77.662,393.822 105.095,226.017 105.095,226.017 c 3.745,13.979 18.556,20.965 18.556,20.965 33.755,-85.76 77.884,-109.784 77.884,-109.784 1.888,27.489 35.162,49.205 35.162,49.205 l 23.074,-12.163 c -3.729,19.527 8.204,37.75 8.204,37.75 47.811,31.221 29.422,95.468 29.422,95.468 l 20.391,-9.26 c -15.173,109.901 -107.936,96.553 -107.936,96.553 z"
       inkscape:connector-curvature="0"
       style="fill:#d80027" /></g><g
     id="g5" /><g
     id="g7" /><g
     id="g9" /><g
     id="g11" /><g
     id="g13" /><g
     id="g15" /><g
     id="g17" /><g
     id="g19" /><g
     id="g21" /><g
     id="g23" /><g
     id="g25" /><g
     id="g27" /><g
     id="g29" /><g
     id="g31" /><g
     id="g33" /></svg>