<?xml version="1.0" encoding="UTF-8"?>
<!DOCTYPE svg PUBLIC "-//W3C//DTD SVG 1.1//EN" "http://www.w3.org/Graphics/SVG/1.1/DTD/svg11.dtd">
<!-- Creator: CorelDRAW X8 -->
<svg xmlns="http://www.w3.org/2000/svg" xml:space="preserve" width="8.5in" height="11in" version="1.1" style="shape-rendering:geometricPrecision; text-rendering:geometricPrecision; image-rendering:optimizeQuality; fill-rule:evenodd; clip-rule:evenodd"
viewBox="0 0 8500 11000"
 xmlns:xlink="http://www.w3.org/1999/xlink">
 <defs>
  <style type="text/css">
   <![CDATA[
    .fil0 {fill:#6699FF}
   ]]>
  </style>
 </defs>
 <g id="Layer_x0020_1">
  <metadata id="CorelCorpID_0Corel-Layer"/>
  <g id="_2599773759888">
   <g>
    <path class="fil0" d="M1992 3416l-17 18c0,0 0,0 0,0 0,0 0,0 0,0l0 18c0,1 0,2 0,2 0,1 1,1 1,1l12 0 0 -15 8 0 0 15 11 0c1,0 1,0 2,-1 0,0 0,-1 0,-2l0 -18c0,0 0,0 0,0l-17 -18z"/>
    <path class="fil0" d="M2016 3430l-7 -7 0 -16c0,0 0,0 0,0 0,-1 0,-1 -1,-1l-5 0c-1,0 -1,0 -1,1 0,0 0,0 0,0l0 8 -8 -8c0,-1 -1,-1 -2,-1 -1,0 -2,0 -2,1l-22 23c0,0 0,0 0,1 0,0 0,0 0,1l2 2c0,1 0,1 0,1 1,0 1,0 1,0l21 -22 21 22c0,0 0,0 0,0l1 0c0,0 0,0 0,-1l2 -2c0,-1 0,-1 0,-1 0,-1 0,-1 0,-1z"/>
   </g>
  </g>
  <g id="_2599773761040">
  </g>
  <g id="_2599773761360">
  </g>
  <g id="_2599773759696">
  </g>
  <g id="_2599773758672">
  </g>
  <g id="_2599773758192">
  </g>
  <g id="_2599773758512">
  </g>
  <g id="_2599773758480">
  </g>
  <g id="_2599773759120">
  </g>
  <g id="_2599773759728">
  </g>
  <g id="_2599773756592">
  </g>
  <g id="_2599773753232">
  </g>
  <g id="_2599773750032">
  </g>
  <g id="_2599773751120">
  </g>
  <g id="_2599773751472">
  </g>
  <g id="_2599773750672">
  </g>
 </g>
</svg>
