<?xml version="1.0" encoding="UTF-8"?>
<!DOCTYPE svg PUBLIC "-//W3C//DTD SVG 1.1//EN" "http://www.w3.org/Graphics/SVG/1.1/DTD/svg11.dtd">
<!-- Creator: CorelDRAW X8 -->
<svg xmlns="http://www.w3.org/2000/svg" xml:space="preserve" width="8.5in" height="11in" version="1.1" style="shape-rendering:geometricPrecision; text-rendering:geometricPrecision; image-rendering:optimizeQuality; fill-rule:evenodd; clip-rule:evenodd"
viewBox="0 0 8500 11000"
 xmlns:xlink="http://www.w3.org/1999/xlink">
 <defs>
  <style type="text/css">
   <![CDATA[
    .fil0 {fill:#D80027}
   ]]>
  </style>
 </defs>
 <g id="Layer_x0020_1">
  <metadata id="CorelCorpID_0Corel-Layer"/>
  <g id="_1859345423824">
   <g id="Share">
    <g>
     <path class="fil0" d="M6977 7167c0,184 -206,333 -459,333l-4591 0c-254,0 -460,-149 -460,-333l0 -3334c0,-184 206,-333 460,-333l1377 0 1530 -667 -3367 0c-507,0 -918,299 -918,667l0 4000c0,368 411,667 918,667l5510 0c507,0 918,-299 918,-667l0 -2750 -918 500 0 1917zm-1385 -3680c-4,33 -7,28 -7,-2 -227,-2 -3082,163 -3201,2712 34,128 616,-1683 3215,-2057 1,27 1,693 1,693l2295 -1000 -2295 -1000c7,-3 -18,530 -15,652 17,0 23,1 7,2zm-3200 2584c-7,58 -8,92 -8,92 1,-32 7,-60 8,-92z"/>
    </g>
   </g>
  </g>
  <g id="_1859345423184">
  </g>
  <g id="_1859345423024">
  </g>
  <g id="_1859345421936">
  </g>
  <g id="_1859345421712">
  </g>
  <g id="_1859345422096">
  </g>
  <g id="_1859345421392">
  </g>
  <g id="_1859345420784">
  </g>
  <g id="_1859345421296">
  </g>
  <g id="_1859345421168">
  </g>
  <g id="_1859345420560">
  </g>
  <g id="_1859345418544">
  </g>
  <g id="_1859345418768">
  </g>
  <g id="_1859345418800">
  </g>
  <g id="_1859345419280">
  </g>
  <g id="_1859345418672">
  </g>
 </g>
</svg>
