<?xml version="1.0" encoding="iso-8859-1"?>
<!-- Generator: Adobe Illustrator 18.0.0, SVG Export Plug-In . SVG Version: 6.00 Build 0)  -->
<!DOCTYPE svg PUBLIC "-//W3C//DTD SVG 1.1//EN" "http://www.w3.org/Graphics/SVG/1.1/DTD/svg11.dtd">
<svg xmlns="http://www.w3.org/2000/svg" xmlns:xlink="http://www.w3.org/1999/xlink" version="1.1" id="Capa_1" x="0px" y="0px" viewBox="0 0 482.141 482.141" style="enable-background:new 0 0 482.141 482.141;" xml:space="preserve" width="512px" height="512px">
<g>
	<path d="M302.615,0H108.967C80.678,0,57.651,23.027,57.651,51.316v379.508c0,28.291,23.026,51.316,51.315,51.316h264.223   c28.274,0,51.3-23.025,51.3-51.316V121.449L302.615,0z M373.189,450.699H108.967c-10.953,0-19.873-8.905-19.873-19.875V51.316   c0-10.953,8.92-19.857,19.873-19.857l181.89-0.191v67.219c0,19.652,15.934,35.603,35.587,35.603l65.863-0.189l0.741,296.924   C393.048,441.794,384.142,450.699,373.189,450.699z" fill="#FFDA44"/>
	<path d="M299.116,193.105H183.025c-10.371,0-18.787,8.4-18.787,18.771v186.507c0,10.37,8.417,18.787,18.77,18.787H299.1   c10.371,0,18.802-8.417,18.786-18.787l0.016-186.507C317.902,201.521,309.471,193.105,299.116,193.105z" fill="#FFDA44"/>
	<path d="M285.876,133.151c0-5.877-4.759-10.639-10.652-10.639h-68.321c-5.894,0-10.655,4.762-10.655,10.639v46.967l89.628,0.017   V133.151z M219.099,162.214c-6.019,0-10.89-4.87-10.89-10.906c0-6.02,4.854-10.906,10.89-10.891   c6.006,0,10.877,4.871,10.877,10.891C229.976,157.344,225.105,162.214,219.099,162.214z M263.024,162.214   c-6.02,0-10.874-4.87-10.874-10.906c0-6.02,4.871-10.891,10.89-10.891c6.019-0.016,10.907,4.871,10.891,10.891   C273.931,157.344,269.059,162.23,263.024,162.214z" fill="#FFDA44"/>
</g>
<g>
</g>
<g>
</g>
<g>
</g>
<g>
</g>
<g>
</g>
<g>
</g>
<g>
</g>
<g>
</g>
<g>
</g>
<g>
</g>
<g>
</g>
<g>
</g>
<g>
</g>
<g>
</g>
<g>
</g>
</svg>
