<?xml version="1.0" encoding="UTF-8" standalone="no"?>
<!-- Generator: Adobe Illustrator 19.0.0, SVG Export Plug-In . SVG Version: 6.00 Build 0)  -->

<svg
   xmlns:dc="http://purl.org/dc/elements/1.1/"
   xmlns:cc="http://creativecommons.org/ns#"
   xmlns:rdf="http://www.w3.org/1999/02/22-rdf-syntax-ns#"
   xmlns:svg="http://www.w3.org/2000/svg"
   xmlns="http://www.w3.org/2000/svg"
   xmlns:sodipodi="http://sodipodi.sourceforge.net/DTD/sodipodi-0.dtd"
   xmlns:inkscape="http://www.inkscape.org/namespaces/inkscape"
   version="1.1"
   id="Layer_1"
   x="0px"
   y="0px"
   viewBox="0 0 1900 512.001"
   xml:space="preserve"
   sodipodi:docname="question.svg"
   width="1900"
   height="512.00098"
   inkscape:version="0.92.1 r15371"><metadata
   id="metadata53"><rdf:RDF><cc:Work
       rdf:about=""><dc:format>image/svg+xml</dc:format><dc:type
         rdf:resource="http://purl.org/dc/dcmitype/StillImage" /><dc:title></dc:title></cc:Work></rdf:RDF></metadata><defs
   id="defs51" /><sodipodi:namedview
   pagecolor="#ffffff"
   bordercolor="#666666"
   borderopacity="1"
   objecttolerance="10"
   gridtolerance="10"
   guidetolerance="10"
   inkscape:pageopacity="0"
   inkscape:pageshadow="2"
   inkscape:window-width="1280"
   inkscape:window-height="657"
   id="namedview49"
   showgrid="false"
   inkscape:zoom="0.15723644"
   inkscape:cx="-1000.3154"
   inkscape:cy="524.23018"
   inkscape:window-x="-8"
   inkscape:window-y="-8"
   inkscape:window-maximized="1"
   inkscape:current-layer="Layer_1" />
<path
   style="fill:#c3e678"
   d="m 238.892,191.85602 h 239.437 c 14.168,0 25.654,11.485 25.654,25.654 v 153.924 c 0,14.168 -11.485,25.654 -25.654,25.654 H 341.508 v 28.204 c 0,5.37 -6.493,8.06 -10.289,4.262 l -32.467,-32.467 h -59.859 c -14.168,0 -25.654,-11.485 -25.654,-25.654 v -153.924 c -0.001,-14.167 11.485,-25.653 25.653,-25.653 z"
   id="path2"
   inkscape:connector-curvature="0" />
<path
   style="fill:#a5d76e"
   d="m 213.238,217.51002 v 153.924 c 0,4.893 1.443,9.42 3.82,13.311 62.891,-25.271 107.347,-86.717 107.347,-158.644 0,-11.729 -1.192,-23.179 -3.441,-34.245 h -82.072 c -14.168,0 -25.654,11.486 -25.654,25.654 z"
   id="path4"
   inkscape:connector-curvature="0" />
<path
   style="fill:#ff6464"
   d="M 298.751,226.061 C 298.751,145.774 233.666,80.689015 153.379,80.689015 73.092,80.689015 8.007,145.774 8.007,226.061 c 0,70.326 49.942,128.979 116.292,142.452 l 43.785,43.785 c 4.04,4.04 10.949,1.179 10.949,-4.535 v -38.727 c 68.03,-12.134 119.718,-71.456 119.718,-142.975 z"
   id="path6"
   inkscape:connector-curvature="0" />
<circle
   style="fill:#d2555a"
   cx="153.37801"
   cy="226.097"
   r="111.167"
   id="circle8" />
<path
   d="M 478.329,183.82 H 300.803 C 292.903,156.309 277.391,131.227 255.67,111.778 222.749,82.297015 180.224,68.762015 135.921,73.659015 64.871,81.518015 8.048,138.871 0.809,210.032 c -3.953,38.846 6.67,77.251 29.909,108.14 22.271,29.6 54.229,50.063 90.203,57.816 l 37.845,37.844 c 3.177,3.178 7.395,4.861 11.698,4.86 2.138,0 4.296,-0.416 6.358,-1.27 6.214,-2.574 10.227,-8.582 10.227,-15.307 V 375.62 c 6.223,-1.391 12.285,-3.155 18.172,-5.257 v 1.05 c 0,18.566 15.105,33.671 33.671,33.671 h 56.539 l 30.119,30.119 c 2.694,2.694 6.269,4.121 9.916,4.121 1.812,0 3.641,-0.353 5.389,-1.076 5.267,-2.182 8.67,-7.275 8.67,-12.976 V 405.084 H 478.33 c 18.566,0 33.671,-15.105 33.671,-33.671 V 217.489 C 512,198.924 496.895,183.82 478.329,183.82 Z M 177.625,361.164 c -3.825,0.682 -6.609,4.007 -6.609,7.892 v 33.06 c 0,0.191 0,0.357 -0.33,0.494 -0.33,0.135 -0.446,0.019 -0.583,-0.115 l -39.539,-39.539 c -1.121,-1.121 -2.55,-1.886 -4.106,-2.194 C 93.374,354.187 63.923,335.638 43.53,308.533 22.725,280.879 13.217,246.474 16.759,211.655 c 3.121,-30.685 17.014,-59.873 39.119,-82.19 22.109,-22.32 51.16,-36.478985 81.805,-39.867985 5.332,-0.59 10.628,-0.882 15.885,-0.882 33.893,0 65.884,12.153985 91.405,35.006985 29.082,26.042 45.761,63.35 45.761,102.359 0.001,66.582 -47.568,123.392 -113.109,135.083 z m 318.341,10.25 c 0,9.725 -7.912,17.637 -17.637,17.637 H 341.508 c -4.427,0 -8.017,3.589 -8.017,8.017 v 23.403 L 304.42,391.4 c -1.503,-1.504 -3.542,-2.348 -5.668,-2.348 h -59.859 c -9.725,0 -17.637,-7.912 -17.637,-17.637 v -7.818 c 51.32,-25.224 85.513,-77.856 85.513,-137.515 0,-8.852 -0.781,-17.622 -2.28,-26.228 H 478.33 c 9.725,0 17.637,7.912 17.637,17.637 v 153.923 z"
   id="path10"
   inkscape:connector-curvature="0" />
<path
   d="m 438.455,246.02702 -79.845,79.845 -37.069,-37.069 c -3.131,-3.131 -8.207,-3.131 -11.337,0 -3.131,3.131 -3.131,8.207 0,11.337 l 42.737,42.737 c 1.565,1.565 3.617,2.348 5.668,2.348 2.051,0 4.104,-0.782 5.668,-2.348 l 85.513,-85.513 c 3.131,-3.131 3.131,-8.207 0,-11.337 -3.128,-3.131 -8.204,-3.131 -11.335,0 z"
   id="path12"
   inkscape:connector-curvature="0" />
<path
   d="m 153.385,286.46402 c -0.003,0 -0.007,0 -0.011,0 -4.427,0 -8.022,3.595 -8.022,8.022 0,10e-4 0,0.003 0,0.005 0,0.002 0,0.003 0,0.005 0,4.427 3.595,8.022 8.022,8.022 0.003,0 0.007,0 0.011,0 4.427,0 8.022,-3.595 8.022,-8.022 0,-10e-4 0,-0.003 0,-0.005 0,-0.002 0,-0.003 0,-0.005 0,-4.427 -3.595,-8.022 -8.022,-8.022 z"
   id="path14"
   inkscape:connector-curvature="0" />
<path
   d="m 153.375,149.65402 c -27.994,0.002 -50.769,22.78 -50.769,50.773 0,4.427 3.589,8.017 8.017,8.017 4.427,0 8.017,-3.589 8.017,-8.017 0,-19.154 15.583,-34.739 34.736,-34.74 9.039,0 17.697,3.679 24.38,10.362 6.683,6.683 10.363,15.342 10.363,24.381 -0.001,15.227 -10.176,28.911 -24.742,33.278 -10.776,3.231 -18.014,12.886 -18.014,24.024 v 2.554 c 0,4.427 3.589,8.017 8.017,8.017 4.427,0 8.017,-3.589 8.017,-8.017 v -2.554 c 0,-4.002 2.647,-7.485 6.587,-8.666 21.295,-6.386 36.169,-26.385 36.17,-48.636 0.001,-13.322 -5.347,-26.008 -15.059,-35.719 -9.713,-9.71 -22.398,-15.058 -35.72,-15.057 z"
   id="path16"
   inkscape:connector-curvature="0" />
<g
   id="g18"
   transform="translate(0,1.71875e-5)">
</g>
<g
   id="g20"
   transform="translate(0,1.71875e-5)">
</g>
<g
   id="g22"
   transform="translate(0,1.71875e-5)">
</g>
<g
   id="g24"
   transform="translate(0,1.71875e-5)">
</g>
<g
   id="g26"
   transform="translate(0,1.71875e-5)">
</g>
<g
   id="g28"
   transform="translate(0,1.71875e-5)">
</g>
<g
   id="g30"
   transform="translate(0,1.71875e-5)">
</g>
<g
   id="g32"
   transform="translate(0,1.71875e-5)">
</g>
<g
   id="g34"
   transform="translate(0,1.71875e-5)">
</g>
<g
   id="g36"
   transform="translate(0,1.71875e-5)">
</g>
<g
   id="g38"
   transform="translate(0,1.71875e-5)">
</g>
<g
   id="g40"
   transform="translate(0,1.71875e-5)">
</g>
<g
   id="g42"
   transform="translate(0,1.71875e-5)">
</g>
<g
   id="g44"
   transform="translate(0,1.71875e-5)">
</g>
<g
   id="g46"
   transform="translate(0,1.71875e-5)">
</g>
<flowRoot
   xml:space="preserve"
   id="flowRoot3725"
   style="font-style:normal;font-weight:normal;font-size:40px;line-height:1.25;font-family:sans-serif;letter-spacing:0px;word-spacing:0px;fill:#2b1100;fill-opacity:1;stroke:none;"
   transform="translate(10,-1.6213483)"><flowRegion
     id="flowRegion3727"
     style="fill:#2b1100;"><rect
       id="rect3729"
       width="1385.6329"
       height="225.20729"
       x="520.53845"
       y="190.45888"
       style="fill:#2b1100;" /></flowRegion><flowPara
     id="flowPara3731"
     style="font-size:200px;fill:#2b1100;">KETERANGAN</flowPara></flowRoot></svg>