<?xml version="1.0" encoding="iso-8859-1"?>
<!-- Generator: Adobe Illustrator 16.0.0, SVG Export Plug-In . SVG Version: 6.00 Build 0)  -->
<!DOCTYPE svg PUBLIC "-//W3C//DTD SVG 1.1//EN" "http://www.w3.org/Graphics/SVG/1.1/DTD/svg11.dtd">
<svg xmlns="http://www.w3.org/2000/svg" xmlns:xlink="http://www.w3.org/1999/xlink" version="1.1" id="Capa_1" x="0px" y="0px" width="512px" height="512px" viewBox="0 0 422.853 422.853" style="enable-background:new 0 0 422.853 422.853;" xml:space="preserve">
<g>
	<path d="M67.715,83.412l158.167,115.99c1.489,1.086,3.505,1.086,5.004,0l158.163-115.99v186.48H250.343   c0.242,1.429,0.438,2.878,0.438,4.366v29.45h167.848c2.334,0,4.225-1.893,4.225-4.224V37.36c0-2.337-1.891-4.23-4.225-4.23H38.107   c-2.332,0-4.225,1.893-4.225,4.23v206.414l33.828-26.008V83.412H67.715z M102.462,66.949h251.815L228.37,159.286L102.462,66.949z    M1.684,300.279l106.246-81.682c1.543-1.193,3.698-1.193,5.255-0.021c1.56,1.171,2.137,3.239,1.415,5.046l-21.354,54.096h125.198   c2.4,0,4.332,1.938,4.332,4.323v43.337c0,2.397-1.937,4.323-4.332,4.323H93.245l21.354,54.086c0.722,1.816,0.141,3.885-1.415,5.056   c-0.777,0.596-1.695,0.881-2.615,0.881c-0.92,0-1.86-0.296-2.64-0.893L1.684,307.157C0.625,306.335,0,305.055,0,303.72   C0.005,302.363,0.625,301.105,1.684,300.279z" fill="#FFDA44"/>
</g>
<g>
</g>
<g>
</g>
<g>
</g>
<g>
</g>
<g>
</g>
<g>
</g>
<g>
</g>
<g>
</g>
<g>
</g>
<g>
</g>
<g>
</g>
<g>
</g>
<g>
</g>
<g>
</g>
<g>
</g>
</svg>
