<?xml version="1.0" encoding="iso-8859-1"?>
<!-- Generator: Adobe Illustrator 19.0.0, SVG Export Plug-In . SVG Version: 6.00 Build 0)  -->
<svg version="1.1" id="Capa_1" xmlns="http://www.w3.org/2000/svg" xmlns:xlink="http://www.w3.org/1999/xlink" x="0px" y="0px"
	 viewBox="0 0 496 496" style="enable-background:new 0 0 496 496;" xml:space="preserve">
<rect x="136" y="88" style="fill:#FFCB57;" width="224" height="192"/>
<g>
	<path style="fill:#E56565;" d="M272,496h-48v-20.176c-2.384-0.84-4.712-1.808-6.984-2.888L202.744,487.2l-28.28-28.288
		l11.312-11.312l16.968,16.976l11.52-11.52l5.344,3.16c4.472,2.64,9.312,4.64,14.392,5.952l6,1.536V480h16v-16.296l6-1.544
		c5.08-1.312,9.92-3.312,14.392-5.952l5.344-3.16l11.52,11.52l11.312-11.32l-11.52-11.52l3.152-5.336
		c2.648-4.48,4.656-9.328,5.968-14.4l1.544-5.992H320v-16h-16.288l-1.544-6c-1.312-5.072-3.32-9.92-5.968-14.4l13.784-8.136
		c2.344,3.976,4.296,8.168,5.84,12.528H336v48h-20.176c-0.84,2.376-1.816,4.712-2.888,6.984l14.264,14.272l-33.936,33.944
		l-14.272-14.264c-2.272,1.08-4.6,2.048-6.984,2.888V496H272z"/>
	<path style="fill:#E56565;" d="M186.024,444.528c-2.344-3.976-4.296-8.168-5.84-12.528H160v-48h20.176
		c0.84-2.376,1.816-4.712,2.888-6.984L168.8,362.744l33.936-33.944l14.272,14.264c2.272-1.08,4.6-2.048,6.984-2.888V320h48v20.176
		c2.384,0.84,4.712,1.808,6.984,2.888l14.272-14.264l28.28,28.288L310.216,368.4l-16.968-16.976l-11.52,11.52l-5.344-3.16
		c-4.472-2.64-9.312-4.64-14.392-5.952L256,352.296V336h-16v16.296l-6,1.544c-5.08,1.312-9.92,3.312-14.392,5.952l-5.344,3.16
		l-11.52-11.52l-11.312,11.32l11.52,11.52l-3.152,5.336c-2.648,4.48-4.656,9.328-5.968,14.4L192.288,400H176v16h16.288l1.544,6
		c1.312,5.072,3.32,9.92,5.968,14.4L186.024,444.528z"/>
</g>
<g>
	<rect x="320" y="112" style="fill:#3F3A34;" width="16" height="16"/>
	<rect x="288" y="112" style="fill:#3F3A34;" width="16" height="16"/>
	<rect x="160" y="112" style="fill:#3F3A34;" width="64" height="16"/>
	<rect x="320" y="176" style="fill:#3F3A34;" width="16" height="16"/>
	<rect x="288" y="176" style="fill:#3F3A34;" width="16" height="16"/>
	<rect x="160" y="176" style="fill:#3F3A34;" width="64" height="16"/>
	<rect x="320" y="240" style="fill:#3F3A34;" width="16" height="16"/>
	<rect x="288" y="240" style="fill:#3F3A34;" width="16" height="16"/>
	<rect x="160" y="240" style="fill:#3F3A34;" width="64" height="16"/>
	<rect y="384" style="fill:#3F3A34;" width="144" height="16"/>
	<rect y="416" style="fill:#3F3A34;" width="144" height="16"/>
	<rect x="352" y="416" style="fill:#3F3A34;" width="144" height="16"/>
	<rect x="352" y="384" style="fill:#3F3A34;" width="144" height="16"/>
	<path style="fill:#3F3A34;" d="M272,304v-16h96V80H128v208h96v16h16v-16h16v16H272z M352,208H144v-48h208V208z M352,96v48H144V96
		H352z M144,224h208v48H144V224z"/>
	<path style="fill:#3F3A34;" d="M248,376c-17.648,0-32,14.352-32,32s14.352,32,32,32s32-14.352,32-32S265.648,376,248,376z M248,424
		c-8.824,0-16-7.176-16-16s7.176-16,16-16s16,7.176,16,16S256.824,424,248,424z"/>
	<path style="fill:#3F3A34;" d="M112,240v-16c-39.704,0-72-32.304-72-72s32.296-72,72-72c0.944,0,1.872,0.072,2.808,0.136
		l7.088,0.424l2.144-5.344C132.608,53.824,153.008,40,176,40c8.344,0,16.456,1.856,24.104,5.52l4.928,2.36l3.992-3.736
		C228.408,26,253.616,16,280,16c39.896,0,76.768,23.384,93.92,59.568l2.256,4.76L384,80c39.704,0,72,32.304,72,72s-32.296,72-72,72
		v16c48.52,0,88-39.48,88-88c0-47.848-38.384-86.896-85.976-87.976C365.344,24.968,324.296,0,280,0
		c-28.696,0-56.176,10.232-77.96,28.928C193.696,25.656,184.96,24,176,24c-27.64,0-52.36,15.52-64.472,40
		C63.224,64.256,24,103.632,24,152C24,200.52,63.48,240,112,240z"/>
</g>
<g>
</g>
<g>
</g>
<g>
</g>
<g>
</g>
<g>
</g>
<g>
</g>
<g>
</g>
<g>
</g>
<g>
</g>
<g>
</g>
<g>
</g>
<g>
</g>
<g>
</g>
<g>
</g>
<g>
</g>
</svg>
